<svg width="184" height="45" viewBox="0 0 184 45" fill="none" xmlns="http://www.w3.org/2000/svg">
<path d="M10.0639 19L5.39062 12.7997H4.33949V19H1.2642V4.45455H4.33949V10.2642H4.95739L9.78693 4.45455H13.6151L7.94034 11.2017L13.8778 19H10.0639ZM15.4244 19V4.45455H21.163C22.2662 4.45455 23.2061 4.66525 23.9826 5.08665C24.7591 5.50331 25.351 6.08333 25.7582 6.8267C26.1701 7.56534 26.3761 8.41761 26.3761 9.38352C26.3761 10.3494 26.1677 11.2017 25.7511 11.9403C25.3344 12.679 24.7307 13.2543 23.94 13.6662C23.154 14.0781 22.2023 14.2841 21.0849 14.2841H17.4272V11.8196H20.5877C21.1796 11.8196 21.6673 11.7178 22.0508 11.5142C22.439 11.3059 22.7279 11.0194 22.9173 10.6548C23.1114 10.2855 23.2085 9.86174 23.2085 9.38352C23.2085 8.90057 23.1114 8.47917 22.9173 8.11932C22.7279 7.75473 22.439 7.47301 22.0508 7.27415C21.6625 7.07055 21.1701 6.96875 20.5735 6.96875H18.4996V19H15.4244ZM29.9432 19.1989V16.6989H30.7315C31.1245 16.6989 31.4418 16.6515 31.6832 16.5568C31.9247 16.4574 32.1165 16.313 32.2585 16.1236C32.4053 15.9295 32.5284 15.688 32.6278 15.3991L32.8054 14.9233L27.5213 4.45455H30.7031L34.1264 11.6136L36.9886 4.45455H40.1278L35.1136 16.1449C34.8722 16.6847 34.5857 17.1866 34.2543 17.6506C33.9276 18.1146 33.5085 18.4886 32.9972 18.7727C32.4858 19.0568 31.8324 19.1989 31.0369 19.1989H29.9432ZM52.8711 4.45455V19H49.8881V4.45455H52.8711ZM41.1026 19L45.6623 11.3295L41.2944 4.45455H45.0799L48.3469 10.4418H54.4904L57.6722 4.45455H61.4435L57.1822 11.3082L61.6566 19H57.9847L54.9094 13.2827H47.8995L44.7461 19H41.1026ZM72.2905 19L67.6172 12.7997H66.5661V19H63.4908V4.45455H66.5661V10.2642H67.1839L72.0135 4.45455H75.8416L70.1669 11.2017L76.1044 19H72.2905ZM77.6509 4.45455H80.7191V13.6023H80.8398L87.1254 4.45455H89.8171V19H86.7418V9.84517H86.6353L80.3143 19H77.6509V4.45455Z" fill="#FF7A00"/>
<path d="M111.098 31.5469H107.987C107.93 31.1444 107.814 30.7869 107.639 30.4744C107.464 30.1572 107.239 29.8873 106.964 29.6648C106.69 29.4422 106.373 29.2718 106.013 29.1534C105.658 29.035 105.272 28.9759 104.855 28.9759C104.102 28.9759 103.446 29.1629 102.888 29.5369C102.329 29.9062 101.896 30.446 101.588 31.1562C101.28 31.8617 101.126 32.7187 101.126 33.7273C101.126 34.7642 101.28 35.6354 101.588 36.3409C101.901 37.0464 102.336 37.5791 102.895 37.9389C103.454 38.2988 104.1 38.4787 104.834 38.4787C105.246 38.4787 105.627 38.4242 105.977 38.3153C106.332 38.2064 106.647 38.0478 106.922 37.8395C107.196 37.6264 107.424 37.3684 107.604 37.0653C107.788 36.7623 107.916 36.4167 107.987 36.0284L111.098 36.0426C111.018 36.7102 110.816 37.3542 110.494 37.9744C110.177 38.59 109.749 39.1416 109.209 39.6293C108.674 40.1122 108.035 40.4957 107.291 40.7798C106.553 41.0592 105.717 41.1989 104.784 41.1989C103.487 41.1989 102.327 40.9053 101.304 40.3182C100.286 39.7311 99.4811 38.8812 98.8892 37.7685C98.3021 36.6558 98.0085 35.3087 98.0085 33.7273C98.0085 32.1411 98.3068 30.7917 98.9034 29.679C99.5 28.5663 100.31 27.7187 101.332 27.1364C102.355 26.5492 103.506 26.2557 104.784 26.2557C105.627 26.2557 106.408 26.3741 107.128 26.6108C107.852 26.8475 108.494 27.1932 109.053 27.6477C109.611 28.0975 110.066 28.6491 110.416 29.3026C110.771 29.956 110.999 30.7041 111.098 31.5469ZM113.303 41V26.4545H123.104V28.9901H116.379V32.456H122.6V34.9915H116.379V38.4645H123.133V41H113.303ZM134.349 41L129.676 34.7997H128.625V41H125.549V26.4545H128.625V32.2642H129.243L134.072 26.4545H137.9L132.225 33.2017L138.163 41H134.349ZM153.722 38.5426L153.545 44.4375H150.619V41H149.596V38.5426H153.722ZM139.71 41V26.4545H142.664V38.5284H148.715V26.4545H151.705V41H139.71ZM155.588 26.4545H158.657V35.6023H158.777L165.063 26.4545H167.755V41H164.679V31.8452H164.573L158.252 41H155.588V26.4545ZM170.295 26.4545H173.364V35.6023H173.484L179.77 26.4545H182.462V41H179.386V31.8452H179.28L172.959 41H170.295V26.4545Z" fill="#FF7A00"/>
<rect x="68" y="37.6698" width="65.4501" height="3" transform="rotate(-30.9597 68 37.6698)" fill="#FF7A00"/>
</svg>
