<svg xmlns="http://www.w3.org/2000/svg" viewBox="0 0 64 64" role="img" aria-label="Music (vocal)">
  
<g>
  <!-- Microphone head -->
  <rect x="22" y="10" width="20" height="26" rx="10" fill="#FF7A00"/>
  <!-- Grille dots -->
  <circle cx="28" cy="18" r="2" fill="#FFB36B" opacity="0.95"/>
  <circle cx="36" cy="18" r="2" fill="#FFB36B" opacity="0.95"/>
  <circle cx="32" cy="24" r="2" fill="#FFB36B" opacity="0.9"/>
  <circle cx="28" cy="30" r="2" fill="#FFB36B" opacity="0.9"/>
  <circle cx="36" cy="30" r="2" fill="#FFB36B" opacity="0.9"/>
  <!-- Handle -->
  <rect x="28" y="34" width="8" height="16" rx="4" fill="#FF7A00"/>
  <rect x="20" y="48" width="24" height="6" rx="3" fill="#FF7A00"/>
  <!-- Voice waves (thick arcs) -->
  <path d="M 9.48 37.00 A 26.00 26.00 0 0 1 9.48 11.00 L 12.95 13.00 A 22.00 22.00 0 0 0 12.95 35.00 Z" fill="#FFB36B" opacity="0.85"/>
  <path d="M 54.52 11.00 A 26.00 26.00 0 0 1 54.52 37.00 L 51.05 35.00 A 22.00 22.00 0 0 0 51.05 13.00 Z" fill="#FFB36B" opacity="0.85"/>
  <!-- Musical note -->
  <path fill="#FFB36B" d="
    M 50 14
    C 50 12.3, 51.3 11, 53 11
    H 54
    V 27
    C 54 31, 51.2 33.5, 48 33.5
    C 45 33.5, 43 31.6, 43 29.2
    C 43 26.8, 45 25, 48 25
    C 48.7 25, 49.4 25.1, 50 25.3 Z
    M 50 14
    V 19
    H 54 V 14 Z"/>
</g>

</svg>
